<svg width="150" height="150" viewBox="0 0 150 150" fill="none" xmlns="http://www.w3.org/2000/svg">
<rect width="150" height="150" fill="#584ABC"/>
<path d="M63.2167 50.1056C69.7222 44.4111 80.2778 44.4111 86.7833 50.1056C93.2944 55.8 93.2944 65.0333 86.7833 70.7278C85.6556 71.7222 84.3944 72.5389 83.0611 73.1833C78.9222 75.1889 75.0056 78.7333 75.0056 83.3333V87.5M125 75C125 81.5661 123.707 88.0679 121.194 94.1342C118.681 100.2 114.998 105.712 110.355 110.355C105.712 114.998 100.2 118.681 94.1342 121.194C88.0679 123.707 81.5661 125 75 125C68.4339 125 61.9321 123.707 55.8658 121.194C49.7995 118.681 44.2876 114.998 39.6447 110.355C35.0017 105.712 31.3188 100.2 28.806 94.1342C26.2933 88.0679 25 81.5661 25 75C25 61.7392 30.2678 49.0215 39.6447 39.6447C49.0215 30.2678 61.7392 25 75 25C88.2608 25 100.979 30.2678 110.355 39.6447C119.732 49.0215 125 61.7392 125 75ZM75 104.167H75.0444V104.211H75V104.167Z" stroke="#F3A5BC" stroke-width="6" stroke-linecap="round" stroke-linejoin="round"/>
</svg>
